<svg version="1.2" xmlns="http://www.w3.org/2000/svg" viewBox="0 0 3172 599" width="3172" height="599"><style>.a{fill:#fff}</style><path class="a" d="m268.9 234.4h17.1l-2.2 10.5h-88.5l-23.3 101.3h-86.3l26.1-111.8h-17.5l33.4-144.7h182.1l-15 65h-95.9l-6 25.2h88.3zm130 0l-25.7 111.8h-86.8l25.7-111.8h-17.5l33.6-144.7h86.6l-33.2 144.7c0 0 17.3 0 17.3 0zm268.5-0.7l-25.5 111.6h-79.7l-34-111.6h-3.9l-25.9 111.6h-80.8l25.9-111.6h-15.6l33.1-143.7h94.1l27.8 90.2 21.1-90.2h81.1l-33.3 143.7c0 0 15.6 0 15.6 0zm249.7 0h19.2c-18.6 55.2-66.3 98.6-124.3 108.7-42.7 6-90.9 3.1-134.3 3.1l25.8-111.8h-19.1l33.1-144c34.3 0 121.1-5.4 155.4 9.2 47.5 20.4 59.3 72.4 48.4 118.7-0.9 5.5-2.3 11-4.2 16.1zm-127.6-80.8l-18.5 80.8h19.1l-11.2 48c37.2 0 58-14 69.5-48h-19.1c1.9-4.6 3.3-10.1 4.8-16.6 10.7-44.4-2.4-64.2-44.6-64.2zm260.2 81.5l-25.7 111.8h-86.8l25.7-111.8h-17.5l33.6-144.7h86.6l-33.2 144.7c0 0 17.3 0 17.3 0zm268.5-0.7l-25.5 111.6h-79.8l-33.9-111.6h-3.9l-25.9 111.6h-80.8l25.9-111.6h-15.6l33.1-143.7h94.1l27.8 90.2 21.1-90.2h81.1l-33.3 143.7zm25.4 2.8h-18.2c10.3-59.4 56.6-122.3 111.5-141.4 56.4-19.7 103.1-10.1 152.5 16.7l-16.5 70.8h-27.1c-3.9-9.6-1.4-28.5-41.2-31.9-56.6-5-93.8 44.6-100.5 85.8h18.2c-3.4 21.4 1.2 40.8 15.8 48.7 9.6 5.1 23.5 7.5 44.1 5.1h0.3l6.4-27.8h-40.9l6.1-26h-18.6l8.9-38.5h125.9l-8.7 38.5h18.3l-21.8 94.4c-8.7 3.6-17.8 6.6-26.9 9.6-40.8 12.6-93.1 21-133.7 4.7-48.2-18.9-61.8-62.8-53.9-108.7zm495.8-2.8l-25.6 111.6h-79.7l-34-111.6h-3.9l-25.9 111.6h-80.8l25.9-111.6h-15.6l33.1-143.7h94.2l27.7 90.2 21.1-90.2h81.2l-33.3 143.7zm124.7 0.7l-25.8 111.8h-86.7l25.7-111.8h-17.5l33.6-144.7h86.6l-33.3 144.7c0 0 17.4 0 17.4 0zm248.4 29.1c-9.4 38.8-42 66.9-79.9 77.7-12 3.1-26.9 4.3-45.1 4.3h-105.6l25.7-111.8h-19.5l33.4-144c29.7 0 119.7-5.7 150 5.4 25.8 10.2 37.9 31.4 31.6 59.2-4.8 20.8-17.3 36.9-34.1 49.4 14 7 22.3 17.7 25 30h18.9c2.2 9.6 1.7 18.9-0.4 29.8zm-87.8-1c5.5-23.8-18-19.2-33.4-19.2l-9.3 39.6c19.1 0 37.8 2.3 42.7-20.4zm-10.3-92.6c4-15.9-9.2-17.8-21.7-17.8l-6.5 31c9.6 0.9 25.7-0.5 28.2-13.2zm331.4 93.6c-9.5 38.8-42.1 66.9-80 77.7-12 3.1-26.9 4.3-45.1 4.3h-105.6l25.7-111.8h-19.5l33.4-144c29.7 0 119.7-5.7 150.1 5.4 25.7 10.2 37.9 31.4 31.5 59.2-4.8 20.8-17.3 36.9-34.1 49.4 14.1 7 22.3 17.7 25 30h18.9c2.2 9.6 1.7 18.9-0.3 29.8zm-87.8-1c5.4-23.8-18-19.2-33.5-19.2l-9.2 39.6c19 0 37.7 2.3 42.7-20.4zm-10.3-92.6c3.9-15.9-9.3-17.8-21.8-17.8l-6.5 31c9.6 0.9 25.7-0.5 28.3-13.2zm126.5 63.8h-15.7l32.9-143.7h86.1l-33.3 143.7h15.9l-11.3 46.8h95.2l-14.7 64.8h-181zm192.4 0.7h-17.5l33.7-144.7h183.6l-14.7 65h-97.9l-5.2 21.9h90l-13.2 57.8h17.5l-1.5 6.9h-90.2l-9.1 40.1h97.6l-14.8 64.8h-184zm409.2-5.4c9.9 36-19.9 78.5-47.5 97.2-54.2 35.5-125.7 29.8-181.1 1.4l16.1-71.4h26.6c3.4 36.9 85.9 52.2 94.3 15.8 4.1-18-60.5-23-82.1-40-1.2-1-2.6-2-3.7-3h-15.7c-17.2-16.2-18.7-37.6-13.7-59.9 20.9-91.4 145-100.5 216.7-64.3l-15.9 69.5h-26.8c1.7-26.1-77.1-43.9-84.5-12.6-5 24.4 74.9 17.2 97 55.8 1.9 3.4 3.5 7.5 4.5 11.5 0 0 15.8 0 15.8 0z"/><path class="a" d="m645.7 446.2h-28.6v24.7h24.1q1.7 0 3 1.3 1.2 1.2 1.2 2.9 0 1.8-1.2 3-1.3 1.2-3 1.2h-24.1v29.6q0 1.7-1.3 3-1.2 1.2-2.9 1.2-1.8 0-3.1-1.2-1.2-1.3-1.2-3v-66.9q0-1.7 1.2-2.9 1.3-1.3 3.1-1.3h32.8q1.8 0 3.1 1.3 1.2 1.2 1.2 2.9 0 1.8-1.2 3-1.3 1.2-3.1 1.2zm106.3 66.9q-1.8 0-3-1.2-1.3-1.3-1.3-3v-66.9q0-1.7 1.3-2.9 1.2-1.3 3-1.3 1.8 0 3 1.3 1.2 1.2 1.2 2.9v66.9q0 1.7-1.2 3-1.2 1.2-3 1.2zm156.9 0q-2.4 0-3.7-2l-34.4-54.6v52.4q0 1.7-1.2 3-1.2 1.2-3 1.2-1.7 0-3-1.2-1.2-1.3-1.2-3v-66.9q0-1.7 1.2-2.9 1.3-1.3 3-1.3 2.4 0 3.6 1.9l34.5 54.6v-52.3q0-1.7 1.2-2.9 1.1-1.3 3-1.3 1.7 0 2.9 1.3 1.3 1.2 1.3 2.9v66.9q0 1.7-1.3 3-1.2 1.2-2.9 1.2zm138 0h-23.5q-1.1 0-2.2-0.6-1-0.7-1.5-1.8-0.9-1.5-0.2-3.4v-65.3q0-1.7 1.2-2.9 1.3-1.3 3.1-1.3h23q7.5 0 13.7 3.3 6.2 3.2 10.6 8.5 4.4 5.2 6.8 11.9 2.4 6.7 2.4 13.5 0 8.5-2.9 15.5-2.9 7.1-7.7 12.1-4.7 5-10.7 7.8-6 2.7-12.1 2.7zm-0.1-66.9h-18.8v58.5h18.9q5.4 0 10-2.6 4.5-2.6 7.8-6.8 3.4-4.2 5.2-9.6 1.9-5.3 1.9-10.7 0-5.4-1.8-10.6-1.8-5.2-5.1-9.3-3.3-4-7.9-6.5-4.7-2.4-10.2-2.4zm298.5 0h-28.7v24.7h24.2q1.7 0 2.9 1.3 1.3 1.2 1.3 2.9 0 1.8-1.3 3-1.2 1.2-2.9 1.2h-24.2v29.6q0 1.7-1.2 3-1.3 1.2-3 1.2-1.8 0-3-1.2-1.3-1.3-1.3-3v-66.9q0-1.7 1.3-2.9 1.2-1.3 3-1.3h32.9q1.8 0 3 1.3 1.3 1.2 1.3 2.9 0 1.8-1.3 3-1.2 1.2-3 1.2zm137.6 66.9q-7.8 0-14.7-2.9-6.9-3-12-8.1-5.1-5.1-8-12-3-6.9-3-14.7 0-7.7 3-14.6 2.9-6.9 8-12 5.1-5.1 12-8 6.9-3 14.7-3 7.7 0 14.6 3 6.9 2.9 12 8 5.1 5.1 8.1 12 2.9 6.9 2.9 14.6 0 7.8-2.9 14.7-3 6.9-8.1 12-5.1 5.1-12 8.1-6.9 2.9-14.6 2.9zm0-66.9q-6 0-11.4 2.3-5.3 2.3-9.3 6.3-4 3.9-6.3 9.3-2.3 5.3-2.3 11.3 0 6 2.3 11.4 2.3 5.3 6.3 9.3 4 4 9.3 6.3 5.4 2.3 11.4 2.3 6 0 11.4-2.3 5.3-2.3 9.3-6.3 3.9-4 6.2-9.3 2.3-5.4 2.3-11.4 0-6-2.3-11.3-2.3-5.4-6.2-9.3-4-4-9.3-6.3-5.4-2.3-11.4-2.3zm177.4 66.9q-7.9 0-14.7-2.9-6.9-3-12-8.1-5.1-5.1-8.1-12-2.9-6.9-2.9-14.7 0-7.7 2.9-14.6 3-6.9 8.1-12 5.1-5.1 12-8 6.8-3 14.7-3 7.7 0 14.6 3 6.8 2.9 11.9 8 5.1 5.1 8.1 12 3 6.9 3 14.6 0 7.8-3 14.7-3 6.9-8.1 12-5.1 5.1-11.9 8.1-6.9 2.9-14.6 2.9zm0-66.9q-6.1 0-11.4 2.3-5.3 2.3-9.4 6.3-4 3.9-6.3 9.3-2.2 5.3-2.2 11.3 0 6 2.2 11.4 2.3 5.3 6.3 9.3 4.1 4 9.4 6.3 5.3 2.3 11.4 2.3 6 0 11.3-2.3 5.4-2.3 9.3-6.3 4-4 6.3-9.3 2.3-5.4 2.3-11.4 0-6-2.3-11.3-2.3-5.4-6.3-9.3-3.9-4-9.3-6.3-5.3-2.3-11.3-2.3zm169.4 66.9h-23.5q-1.1 0-2.2-0.6-1-0.7-1.5-1.8-0.9-1.5-0.2-3.4v-65.3q0-1.7 1.2-2.9 1.3-1.3 3.1-1.3h23q7.5 0 13.7 3.3 6.2 3.2 10.6 8.5 4.4 5.2 6.8 11.9 2.4 6.7 2.4 13.5 0 8.5-2.9 15.5-2.9 7.1-7.7 12.1-4.7 5-10.7 7.8-6 2.7-12.1 2.7zm-0.1-66.9h-18.8v58.5h18.9q5.4 0 10-2.6 4.5-2.6 7.8-6.8 3.4-4.2 5.2-9.6 1.9-5.3 1.9-10.7 0-5.4-1.8-10.6-1.8-5.2-5.1-9.3-3.3-4-7.9-6.5-4.7-2.4-10.2-2.4zm298.5 0h-28.7v24.7h24.2q1.7 0 2.9 1.3 1.3 1.2 1.3 2.9 0 1.8-1.3 3-1.2 1.2-2.9 1.2h-24.2v29.6q0 1.7-1.2 3-1.3 1.2-3 1.2-1.8 0-3-1.2-1.3-1.3-1.3-3v-66.9q0-1.7 1.3-2.9 1.2-1.3 3-1.3h32.9q1.8 0 3 1.3 1.3 1.2 1.3 2.9 0 1.8-1.3 3-1.2 1.2-3 1.2zm153.4 66.5q-0.8 0.4-1.7 0.4-1.2 0-2.3-0.6-1.1-0.7-1.6-2l-7.5-17.7h-34.7l-7.5 17.7q-0.7 1.7-2.3 2.3-1.6 0.7-3.2-0.1-1.7-0.6-2.3-2.3-0.7-1.6 0.1-3.2l8.5-20.3 20.2-47.2q0.5-1.2 1.5-1.9 1.1-0.7 2.4-0.7 1.2 0 2.3 0.7 1 0.7 1.5 1.9 7.3 17 14.4 33.8 7.2 16.7 14.4 33.7 0.7 1.6 0 3.2-0.6 1.7-2.2 2.3zm-30.4-60.5l-13.7 32.1h27.3zm151.8 60.9q-4.4 0-8.2-1.7-3.8-1.6-6.7-4.5-2.8-2.9-4.5-6.7-1.7-3.8-1.7-8.2 0-1.8 1.3-3.1 1.2-1.2 3-1.2 1.7 0 3 1.2 1.2 1.3 1.2 3.1 0 2.6 1 4.9 1 2.3 2.7 4 1.8 1.7 4 2.7 2.3 1 4.9 1 2.6 0 4.9-1 2.4-1 4.1-2.7 1.7-1.7 2.7-4 1-2.3 1-4.9 0-3.2-1.2-5.2-1.3-2.1-3.5-3.6-1-0.7-2.4-1.4-1.3-0.6-2.7-1.3-1.5-0.5-3-1.1-1.5-0.6-3.1-1.1-3.2-1.2-6.4-2.6-3.2-1.5-5.7-3.6-2.5-2.2-4.2-5.3-1.6-3.2-1.6-7.9 0-4.4 1.7-8.2 1.7-3.8 4.5-6.7 2.9-2.9 6.7-4.5 3.8-1.7 8.2-1.7 4.4 0 8.3 1.7 3.8 1.6 6.7 4.5 2.9 2.9 4.5 6.7 1.7 3.8 1.7 8.2 0 1.7-1.2 2.9-1.3 1.3-3.1 1.3-1.7 0-2.9-1.3-1.3-1.2-1.3-2.9 0-2.6-1-4.9-1-2.4-2.7-4.1-1.7-1.7-4.1-2.7-2.3-1-4.9-1-2.6 0-4.9 1-2.2 1-4 2.7-1.7 1.7-2.7 4.1-1 2.3-1 4.9 0 2.8 1.2 4.8 1.2 1.9 3.4 3.3 2.3 1.4 5.2 2.6l3 1.1 3.2 1.2q3.1 1.1 6.3 2.6 3.2 1.5 5.7 3.7 2.6 2.2 4.2 5.6 1.6 3.3 1.6 8.2 0 4.4-1.7 8.2-1.6 3.8-4.5 6.7-2.9 2.9-6.7 4.5-3.9 1.7-8.3 1.7zm161.5-66.9h-15.4v62.7q0 1.7-1.3 3-1.2 1.2-2.9 1.2-1.9 0-3.1-1.2-1.2-1.3-1.2-3v-62.7h-15.5q-1.7 0-3-1.2-1.2-1.2-1.2-3 0-1.7 1.2-3 1.3-1.2 3-1.2h39.4q1.7 0 3 1.2 1.2 1.3 1.2 3 0 1.8-1.2 3-1.3 1.2-3 1.2z"/></svg>